<svg xmlns="http://www.w3.org/2000/svg" viewBox="0 0 74 28" role="img" aria-labelledby="title">
  <title id="title">TMDB</title>
  <defs>
    <linearGradient id="g" x1="0" x2="1">
      <stop offset="0" stop-color="#90cea1"/>
      <stop offset="1" stop-color="#01b4e4"/>
    </linearGradient>
  </defs>
  <rect width="74" height="28" rx="7" fill="#0d253f"/>
  <path d="M8 7h11v3h-4v11h-3V10H8zm13 0h4l3 8 3-8h4v14h-3V12l-3 8h-2l-3-8v9h-3zm17 0h5c5 0 8 2.5 8 7s-3 7-8 7h-5zm3 3v8h2c3 0 5-1.1 5-4s-2-4-5-4zm13-3h7c3 0 5 1.4 5 3.7 0 1.4-.7 2.5-2 3.1 1.7.5 2.7 1.7 2.7 3.4 0 2.5-2 3.8-5.5 3.8H54zm3 3v2.6h3.7c1.3 0 2-.4 2-1.3s-.7-1.3-2-1.3zm0 5.1V18h4.1c1.5 0 2.3-.5 2.3-1.5s-.8-1.4-2.3-1.4z" fill="url(#g)"/>
</svg>
